<svg width="44" height="44" viewBox="0 0 44 44" fill="none" xmlns="http://www.w3.org/2000/svg">
<circle cx="22" cy="22" r="22" fill="url(#paint0_linear)"/>
<path fill-rule="evenodd" clip-rule="evenodd" d="M14.8419 10.1147C14.9807 10.1619 15.1949 10.2721 15.3178 10.3509C16.0713 10.8471 18.1692 13.5129 18.8553 14.8439C19.2479 15.6039 19.3787 16.167 19.2558 16.5844C19.1289 17.0333 18.9187 17.2696 17.9788 18.0217C17.6021 18.3248 17.2491 18.6359 17.1936 18.7187C17.0508 18.9235 16.9358 19.325 16.9358 19.6086C16.9398 20.2662 17.3681 21.4594 17.9312 22.3768C18.3674 23.0895 19.1487 24.0031 19.9221 24.7041C20.8302 25.531 21.6313 26.0941 22.5355 26.539C23.6974 27.1139 24.4073 27.2597 24.9268 27.0195C25.0577 26.9604 25.1965 26.8816 25.2401 26.8462C25.2798 26.8108 25.5851 26.4406 25.9183 26.0311C26.5607 25.2277 26.7074 25.0978 27.1476 24.9482C27.7068 24.7592 28.2779 24.8104 28.8529 25.1018C29.2892 25.3263 30.2409 25.913 30.8556 26.3382C31.6646 26.9013 33.3936 28.3032 33.6277 28.5828C34.0401 29.0868 34.1115 29.7325 33.8339 30.4453C33.5404 31.1974 32.3983 32.6071 31.6012 33.2096C30.8794 33.753 30.3678 33.9617 29.6937 33.9932C29.1385 34.0207 28.9085 33.9735 28.1986 33.6821C22.6307 31.4022 18.185 28 14.6555 23.3258C12.8115 20.8845 11.4076 18.3524 10.4478 15.726C9.88869 14.1942 9.86094 13.5287 10.3209 12.7451C10.5192 12.4143 11.3639 11.5953 11.9786 11.1385C13.0018 10.3824 13.4737 10.1028 13.8505 10.0241C14.1082 9.96897 14.5563 10.0123 14.8419 10.1147Z" fill="white"/>
<defs>
<linearGradient id="paint0_linear" x1="22" y1="-7.26346e-09" x2="22.1219" y2="40.5458" gradientUnits="userSpaceOnUse">
<stop stop-color="#8AD336"/>
<stop offset="1" stop-color="#509600"/>
</linearGradient>
</defs>
</svg>
