<svg width="44" height="44" viewBox="0 0 44 44" fill="none" xmlns="http://www.w3.org/2000/svg">
<circle cx="22" cy="22" r="22" fill="url(#paint0_linear)"/>
<path opacity="0.24" fill-rule="evenodd" clip-rule="evenodd" d="M30.47 11.05H13.5C11.7327 11.05 10.3 12.4827 10.3 14.25V30.12C10.3 31.8873 11.7327 33.32 13.5 33.32H30.47C32.2373 33.32 33.67 31.8873 33.67 30.12V14.25C33.67 12.4827 32.2373 11.05 30.47 11.05ZM13.5 10.75C11.567 10.75 10 12.317 10 14.25V30.12C10 32.053 11.567 33.62 13.5 33.62H30.47C32.403 33.62 33.97 32.053 33.97 30.12V14.25C33.97 12.317 32.403 10.75 30.47 10.75H13.5Z" fill="white"/>
<path fill-rule="evenodd" clip-rule="evenodd" d="M15.8962 33.608H15.8962H15.8963C16.356 33.6031 16.8155 33.5983 17.2745 33.5983L17.2724 33.5853L17.2746 33.598C17.3792 33.598 17.4839 33.6033 17.5886 33.6137H25.1506C25.7786 33.6137 26.4065 33.6149 27.0345 33.616H27.0353C28.291 33.6184 29.5467 33.6207 30.8025 33.6137H30.8286C32.5765 33.598 33.979 32.1746 33.9686 30.4267V27.3653C33.9686 27.3462 33.9699 27.3227 33.9713 27.298C33.9757 27.2211 33.9807 27.1332 33.9476 27.135C33.8534 27.1403 33.7049 27.1739 33.6525 27.2262C33.2512 27.4938 32.862 27.786 32.4728 28.0782L32.4728 28.0782C31.6944 28.6627 30.916 29.2471 30.0403 29.6344C26.6326 30.784 23.6187 30.8384 20.4197 30.0656C20.2447 30.002 20.1613 30.0091 20.0134 30.0218H20.0133H20.0133C19.918 30.0299 19.7959 30.0404 19.6051 30.0357C19.582 30.0366 19.558 30.0373 19.533 30.0381L19.5327 30.0381C19.2171 30.0479 18.759 30.0622 18.2113 30.3953C16.9292 30.7878 15.1902 30.8384 14.2916 30.7041C14.2954 30.7126 14.2979 30.7201 14.2997 30.727L14.297 30.7213L14.2916 30.7095C14.2791 30.6954 14.2634 30.683 14.2481 30.671C14.1993 30.6325 14.1556 30.5981 14.2393 30.5264C14.2637 30.5107 14.2881 30.4944 14.3126 30.4781C14.3614 30.4455 14.4102 30.413 14.4591 30.3851C15.1446 29.9402 15.7883 29.4535 16.2122 28.7366C16.7885 28.0379 16.5213 27.7654 16.0121 27.246L15.993 27.2264C13.5121 24.695 12.7821 22.0088 13.0409 18.3957C13.3496 16.4123 14.2602 14.7063 15.5737 13.2201C16.3692 12.32 17.3164 11.5925 18.3526 10.9855C18.3675 10.976 18.385 10.9682 18.4028 10.9603C18.4534 10.9378 18.5071 10.9139 18.5148 10.8442C18.5209 10.7891 18.4325 10.7709 18.4011 10.7709C17.8105 10.7709 17.2276 10.7656 16.6474 10.7604C15.4949 10.75 14.353 10.7396 13.1835 10.7709C11.5036 10.818 9.97264 11.975 10.0004 14.0365C10.0073 17.679 10.005 21.3192 10.0027 24.9586C10.0015 26.778 10.0004 28.5972 10.0004 30.4165C10.0004 32.1068 11.293 33.525 12.9833 33.593C13.9529 33.6285 14.925 33.6183 15.8962 33.608H15.8962H15.8962ZM14.358 30.8239L14.3701 30.8403C14.4578 30.9182 14.5449 30.9968 14.6315 31.076C14.5475 30.9956 14.4608 30.9153 14.3701 30.8349L14.358 30.8239ZM17.037 33.3377C17.0078 33.3185 16.9798 33.298 16.9553 33.2736L16.9484 33.2721L16.9553 33.279C16.9798 33.3011 17.0078 33.3199 17.037 33.3377ZM18.091 21.8868C18.3582 21.8868 18.62 21.8862 18.878 21.8856C19.3831 21.8845 19.8738 21.8833 20.3622 21.8868C20.7756 21.892 21.0006 22.0647 21.0425 22.3944C21.0896 22.8078 20.8489 23.0852 20.3988 23.0904C19.7631 23.0983 19.1304 23.0973 18.4962 23.0963C18.2846 23.096 18.0728 23.0957 17.8607 23.0957C17.7903 23.0957 17.7203 23.0965 17.6505 23.0974L17.6504 23.0974H17.6504C17.4764 23.0995 17.3036 23.1016 17.1281 23.0904C16.8245 23.0747 16.5262 23.0119 16.3797 22.6979C16.2332 22.384 16.3378 22.1014 16.5367 21.8449C17.3426 20.8192 18.1538 19.7883 18.9649 18.7626C19.012 18.6998 19.0591 18.637 19.1062 18.5794C19.0677 18.5139 19.0177 18.5193 18.969 18.5247C18.9516 18.5266 18.9343 18.5285 18.9178 18.5271C18.6352 18.5245 18.3513 18.5245 18.0674 18.5245C17.7835 18.5245 17.4996 18.5245 17.217 18.5219C17.0862 18.5219 16.9554 18.5062 16.8298 18.48C16.5315 18.412 16.3483 18.1137 16.4163 17.8206C16.4634 17.6217 16.6204 17.4595 16.8193 17.4124C16.9449 17.381 17.0757 17.3653 17.2066 17.3653C18.1381 17.3601 19.0748 17.3601 20.0063 17.3653C20.1738 17.3601 20.336 17.381 20.4982 17.4229C20.8541 17.5432 21.0059 17.8729 20.8646 18.2183C20.739 18.5166 20.5401 18.773 20.3413 19.0295L20.3412 19.0295C19.6557 19.9034 18.9701 20.7721 18.2846 21.6356C18.227 21.7036 18.1747 21.7717 18.091 21.8868ZM24.1615 19.1338C24.2871 18.9716 24.418 18.8198 24.6325 18.7779C25.0459 18.6942 25.4332 18.9611 25.4384 19.3798C25.4541 20.4264 25.4489 21.4731 25.4384 22.5197C25.4384 22.7919 25.2605 23.0326 25.0041 23.1111C24.7424 23.2105 24.4441 23.132 24.2714 22.907C24.1825 22.7971 24.1458 22.7762 24.0202 22.8756C23.544 23.2628 23.005 23.3309 22.4241 23.1425C21.4926 22.8389 21.1105 22.1115 21.0059 21.2271C20.896 20.2694 21.2152 19.453 22.0735 18.9506C22.7852 18.5267 23.5074 18.5634 24.1615 19.1338ZM23.2771 19.8926C23.3559 19.8959 23.433 19.9105 23.5063 19.9356C23.6641 19.9865 23.8044 20.0873 23.9051 20.2276C24.1982 20.6253 24.1982 21.2794 23.9051 21.6772C23.8528 21.7452 23.7952 21.8028 23.7324 21.8499C23.5719 21.9686 23.3837 22.0236 23.1984 22.0195C23.0235 22.017 22.8475 21.9617 22.6962 21.8497C22.6334 21.8026 22.5758 21.7451 22.5235 21.6771C22.3927 21.4939 22.3194 21.2741 22.3089 21.0438C22.3037 20.306 22.7067 19.8612 23.2771 19.8926ZM27.7882 21.0753C27.7463 19.7304 28.6307 18.7256 29.8867 18.689C31.2212 18.6471 32.1945 19.542 32.2364 20.8503C32.2783 22.1743 31.4671 23.1111 30.2164 23.2367C28.8505 23.3727 27.7672 22.3837 27.7882 21.0753ZM29.1017 20.9504C29.0914 21.2118 29.1699 21.468 29.3267 21.6824L29.3282 21.6843C29.3697 21.7411 29.4164 21.7927 29.4732 21.834C29.5503 21.8948 29.6348 21.9403 29.7229 21.9709C29.9086 22.0362 30.1142 22.0366 30.303 21.9664C30.4475 21.914 30.5795 21.8225 30.6813 21.6938L30.6821 21.6929L30.6897 21.6828C30.836 21.4881 30.9094 21.2266 30.9104 20.9643C30.9117 20.7304 30.8551 20.4963 30.7413 20.3077C30.7246 20.2799 30.7066 20.2531 30.6874 20.2275C30.5408 20.0286 30.3106 19.903 30.0646 19.8978C30.0238 19.8955 29.9838 19.8957 29.9448 19.8982C29.4598 19.9287 29.1234 20.3172 29.1027 20.893C29.102 20.9117 29.1017 20.9306 29.1017 20.9496L29.1017 20.9504ZM27.3276 20.0339C27.3276 20.3043 27.3282 20.5747 27.3288 20.8451C27.33 21.3858 27.3311 21.9266 27.3276 22.4674C27.3329 22.8389 27.0398 23.1477 26.6682 23.1582C26.6054 23.1582 26.5374 23.1529 26.4746 23.1372C26.213 23.0692 26.0141 22.7919 26.0141 22.4622V18.3017C26.0141 18.2195 26.0135 18.1379 26.0129 18.0565C26.0118 17.8943 26.0106 17.7328 26.0141 17.5691C26.0193 17.1661 26.2758 16.9044 26.663 16.9044C27.0607 16.8992 27.3276 17.1609 27.3276 17.5795C27.3311 18.1239 27.33 18.6707 27.3288 19.2167V19.2168L27.3288 19.22C27.3282 19.4916 27.3276 19.7631 27.3276 20.0339Z" fill="white"/>
<defs>
<linearGradient id="paint0_linear" x1="22" y1="0" x2="22" y2="44" gradientUnits="userSpaceOnUse">
<stop stop-color="#3A8BFF"/>
<stop offset="1" stop-color="#035ADA"/>
</linearGradient>
</defs>
</svg>
